<?xml version="1.0" standalone="no"?>
<!DOCTYPE svg PUBLIC "-//W3C//DTD SVG 20010904//EN"
 "http://www.w3.org/TR/2001/REC-SVG-20010904/DTD/svg10.dtd">
<svg version="1.0" xmlns="http://www.w3.org/2000/svg"
 width="96.000000pt" height="96.000000pt" viewBox="0 0 96.000000 96.000000"
 preserveAspectRatio="xMidYMid meet">

<g transform="translate(0.000000,96.000000) scale(0.100000,-0.100000)"
fill="#000000" stroke="none">
<path d="M40 633 c0 -6 5 -15 10 -18 6 -3 10 -18 10 -33 1 -36 30 -98 72 -150
42 -52 142 -128 179 -136 42 -8 101 4 95 20 -3 9 2 14 14 14 11 0 20 -7 20
-15 0 -19 120 -17 136 3 16 22 59 11 58 -15 0 -12 2 -22 5 -21 3 0 13 0 21 -1
13 -1 13 -2 0 -12 -13 -9 -13 -10 0 -6 8 2 14 12 13 23 -1 10 8 39 20 64 l22
45 72 0 c39 0 69 3 67 7 -2 4 0 9 6 13 6 4 8 11 4 16 -3 5 -9 7 -14 4 -5 -3
-31 5 -57 19 -26 14 -43 25 -36 26 7 0 10 6 7 14 -7 19 32 39 61 32 13 -3 26
-2 29 3 3 5 -10 11 -29 13 -19 2 -35 0 -35 -4 0 -4 -11 -8 -25 -8 -14 0 -25
-4 -25 -9 0 -5 -7 -11 -15 -15 -20 -7 -44 19 -38 43 3 10 0 22 -7 26 -7 4 -10
1 -8 -10 4 -25 -28 -27 -73 -4 -52 26 -61 25 -49 -7 13 -33 13 -54 0 -34 -6 9
-10 10 -10 3 0 -18 20 -27 33 -14 14 14 64 14 72 1 4 -6 -9 -11 -32 -11 -30
-2 -32 -3 -10 -6 34 -5 36 -23 2 -23 -40 0 -29 -20 13 -22 l37 -1 -34 -4 c-18
-3 -38 0 -44 6 -7 7 -15 7 -24 0 -10 -9 -13 -5 -13 20 0 41 -18 40 -23 -1 l-4
-33 -1 33 c-1 21 -7 32 -17 32 -10 0 -16 -11 -16 -32 -2 -32 -2 -32 -6 -5 -3
16 0 34 6 40 7 9 5 13 -7 13 -14 0 -17 -9 -15 -41 1 -22 0 -32 -3 -22 -4 11
-15 17 -34 17 -19 0 -30 -6 -33 -17 -3 -10 -5 -4 -6 12 -1 30 1 31 37 28 l37
-2 -35 8 c-20 4 -41 11 -48 15 -7 4 -12 2 -12 -3 0 -6 -13 -11 -30 -11 -16 0
-30 -4 -30 -10 0 -5 5 -10 10 -10 6 0 10 -7 10 -15 0 -8 7 -15 15 -15 18 0 20
17 3 23 -7 2 -10 8 -6 12 10 10 41 -22 33 -35 -9 -14 -58 -13 -73 2 -9 9 -12
8 -12 -4 0 -21 27 -42 56 -44 13 0 28 -4 32 -9 4 -4 -12 -6 -34 -3 -31 2 -40
0 -37 -9 3 -7 16 -13 28 -13 26 0 38 -14 42 -45 1 -11 0 -15 -3 -9 -2 6 -18 9
-34 6 -82 -12 -275 200 -247 272 10 27 68 19 123 -15 39 -25 45 -27 29 -9 -42
47 -143 78 -160 49 -5 -6 -12 -4 -21 8 -7 10 -14 13 -14 6z m457 -185 c-3 -8
-6 -5 -6 6 -1 11 2 17 5 13 3 -3 4 -12 1 -19z m-57 -35 c0 -13 4 -21 10 -18 6
4 10 -9 9 -32 -1 -21 -3 -30 -6 -20 -3 11 -14 17 -33 17 -19 0 -30 -6 -33 -17
-3 -10 -5 -3 -6 15 -1 43 24 93 44 86 8 -4 15 -17 15 -31z m50 -3 c-11 -7 -7
-10 16 -10 16 0 35 -5 42 -12 9 -9 15 -9 24 0 7 7 27 12 45 12 26 0 33 -4 33
-20 0 -16 -7 -20 -35 -20 -24 0 -35 -5 -35 -15 0 -18 -5 -18 -31 -5 -15 8 -19
7 -19 -5 0 -19 -34 -20 -50 -1 -19 23 -1 110 19 91 3 -3 -1 -10 -9 -15z"/>
<path d="M391 384 c0 -11 3 -14 6 -6 3 7 2 16 -1 19 -3 4 -6 -2 -5 -13z"/>
<path d="M480 375 c0 -10 10 -15 30 -15 20 0 30 5 30 15 0 10 -10 15 -30 15
-20 0 -30 -5 -30 -15z"/>
<path d="M580 380 c0 -5 11 -10 25 -10 14 0 25 5 25 10 0 6 -11 10 -25 10 -14
0 -25 -4 -25 -10z"/>
<path d="M794 603 c4 -7 3 -13 -3 -13 -5 0 -17 -3 -27 -7 -13 -5 -15 -3 -9 8
5 8 4 11 0 6 -5 -4 -11 -19 -12 -32 -3 -19 1 -25 16 -25 11 0 23 9 26 21 6 17
9 19 16 8 7 -10 8 -8 6 8 -2 12 -7 26 -12 30 -4 5 -5 2 -1 -4z"/>
<path d="M706 574 c-8 -22 -4 -25 11 -9 7 8 9 16 4 19 -5 3 -12 -1 -15 -10z"/>
<path d="M505 510 c4 -6 11 -8 16 -5 14 9 11 15 -7 15 -8 0 -12 -5 -9 -10z"/>
<path d="M800 466 c0 -3 9 -10 20 -16 11 -6 20 -8 20 -6 0 3 -9 10 -20 16 -11
6 -20 8 -20 6z"/>
<path d="M733 383 c9 -2 25 -2 35 0 9 3 1 5 -18 5 -19 0 -27 -2 -17 -5z"/>
<path d="M280 353 c0 -8 13 -13 35 -13 19 0 35 4 35 9 0 5 -16 11 -35 13 -24
3 -35 0 -35 -9z"/>
</g>
</svg>
