<?xml version="1.0" standalone="no"?>
<!DOCTYPE svg PUBLIC "-//W3C//DTD SVG 20010904//EN"
 "http://www.w3.org/TR/2001/REC-SVG-20010904/DTD/svg10.dtd">
<svg version="1.0" xmlns="http://www.w3.org/2000/svg"
 width="360.000000pt" height="360.000000pt" viewBox="0 0 360.000000 360.000000"
 preserveAspectRatio="xMidYMid meet">

<g transform="translate(0.000000,360.000000) scale(0.100000,-0.100000)"
fill="#000000" stroke="none">
<path d="M1815 3183 c-307 -38 -615 -185 -865 -412 l-81 -73 -45 12 c-64 18
-146 7 -220 -30 -104 -51 -164 -150 -164 -271 0 -82 15 -127 61 -188 22 -28
39 -54 39 -57 0 -2 -23 -27 -51 -54 l-50 -49 1 -123 c1 -68 2 -307 1 -533 0
-275 4 -423 11 -448 15 -50 82 -125 133 -148 24 -11 64 -19 98 -19 58 0 59 -1
130 -65 180 -165 414 -274 654 -306 121 -16 362 -6 478 21 346 78 649 265 881
542 63 74 67 78 117 84 40 6 60 15 85 40 36 36 39 59 16 126 -15 46 -15 47 17
120 168 383 181 774 37 1117 -36 85 -42 109 -48 206 -8 127 -15 149 -67 206
-52 58 -102 79 -190 79 -65 0 -78 3 -125 34 -141 90 -310 155 -468 181 -86 13
-304 18 -385 8z m348 -68 c124 -19 291 -74 387 -128 69 -38 73 -42 46 -45 -18
-2 -61 11 -116 37 -337 156 -737 145 -1095 -31 -99 -49 -130 -67 -230 -138
-70 -50 -135 -79 -135 -61 0 10 110 95 185 143 297 192 639 271 958 223z m702
-206 c152 -42 192 -284 73 -433 l-32 -40 52 -150 c29 -83 52 -161 52 -173 0
-13 -10 -29 -22 -37 -29 -17 -125 -28 -147 -16 -11 5 -35 66 -66 164 -27 86
-53 156 -57 156 -4 0 -8 -71 -8 -158 0 -194 -1 -195 -113 -196 l-72 -1 -3 416
c-2 389 -1 417 16 432 11 10 57 22 122 30 135 19 157 19 205 6z m-397 -45 c18
-13 22 -25 22 -73 0 -80 -11 -88 -150 -106 -63 -8 -115 -15 -117 -15 -2 0 -3
-38 -3 -85 l0 -86 53 6 c28 4 57 8 62 9 6 2 20 0 33 -5 20 -7 22 -15 22 -73 0
-78 -11 -92 -78 -101 -99 -13 -92 -5 -92 -101 l0 -86 28 6 c15 3 69 10 120 16
116 15 122 11 122 -75 0 -46 -4 -66 -17 -77 -12 -11 -72 -23 -184 -37 -191
-24 -230 -26 -247 -9 -9 9 -12 116 -12 418 0 379 1 408 18 423 13 12 73 24
202 41 102 13 187 24 190 25 3 0 16 -6 28 -15z m-578 -89 c37 -19 77 -65 96
-110 25 -59 23 -177 -5 -241 -42 -94 -139 -164 -228 -164 l-43 0 0 -155 c0
-152 -1 -156 -25 -180 -13 -14 -35 -25 -48 -25 -14 0 -38 -3 -55 -6 -22 -5
-35 -1 -51 15 -21 21 -21 28 -21 410 0 226 4 400 10 415 11 29 20 32 160 51
110 14 169 11 210 -10z m-421 -39 c9 -10 11 -105 9 -353 l-3 -338 -30 -54
c-37 -68 -95 -117 -159 -136 -123 -37 -221 -1 -271 99 l-25 50 0 331 c0 257 3
335 13 349 17 23 139 35 162 16 13 -11 15 -58 15 -328 0 -279 2 -318 17 -334
23 -25 48 -22 72 8 20 26 21 38 21 344 0 289 2 318 18 333 29 26 143 35 161
13z m-632 -77 c41 -13 99 -77 112 -126 28 -101 4 -173 -58 -173 -16 0 -42 -3
-58 -6 -42 -8 -63 16 -63 71 0 33 -5 47 -21 59 -30 20 -62 6 -73 -33 -14 -49
5 -74 106 -142 115 -77 135 -94 161 -144 16 -30 21 -57 20 -110 -1 -82 -19
-129 -70 -186 -52 -57 -104 -81 -188 -86 -60 -4 -76 -1 -115 19 -60 33 -98 94
-106 173 -9 81 9 103 91 114 74 11 95 1 95 -42 0 -51 21 -82 55 -82 24 0 31 6
43 37 13 34 13 40 -2 63 -9 14 -54 50 -101 81 -148 97 -180 145 -180 264 1 89
21 136 85 194 76 68 164 87 267 55z m2212 -243 c53 -127 72 -225 78 -398 6
-164 -3 -262 -37 -392 -24 -94 -80 -246 -90 -246 -21 0 -15 37 21 143 98 290
97 600 -1 867 -28 77 -31 100 -10 100 4 0 22 -33 39 -74z m-196 -427 c48 -13
102 -60 130 -113 17 -33 21 -58 21 -126 0 -95 -18 -150 -72 -211 l-30 -35 54
-158 c30 -87 54 -170 52 -185 -2 -20 -12 -29 -38 -38 -47 -16 -135 -16 -147 0
-5 6 -31 80 -57 162 -26 83 -52 154 -57 159 -5 6 -9 -59 -9 -160 0 -202 1
-201 -105 -211 -59 -5 -70 -4 -81 12 -11 15 -14 101 -14 432 0 400 1 414 20
433 11 11 30 20 43 21 12 0 65 6 117 13 126 17 129 18 173 5z m-385 -51 c7 -7
12 -39 12 -73 0 -83 -10 -90 -135 -105 -155 -17 -140 -6 -140 -105 l0 -86 73
7 c93 8 102 1 102 -81 0 -78 -13 -91 -104 -102 l-69 -8 -1 -87 c-1 -102 -15
-94 136 -75 132 18 138 15 138 -72 0 -62 -3 -72 -22 -85 -32 -21 -404 -64
-426 -49 -15 9 -17 50 -20 435 -2 386 -1 427 14 439 10 8 86 23 178 35 190 26
248 28 264 12z m-488 -67 c18 -35 12 -119 -10 -141 -11 -11 -24 -20 -29 -20
-12 0 -155 -18 -198 -26 l-33 -5 0 -85 0 -85 79 7 c73 6 80 5 90 -14 6 -11 11
-43 11 -71 0 -77 -17 -89 -150 -103 l-25 -3 -3 -166 c-3 -198 -3 -198 -108
-207 -57 -4 -69 -2 -81 13 -10 15 -13 101 -13 426 0 383 1 408 19 430 16 21
37 26 182 45 217 29 255 29 269 5z m-503 -53 c16 -20 22 -97 11 -128 -12 -35
-16 -36 -120 -50 -46 -5 -98 -13 -115 -16 l-33 -5 0 -85 0 -86 70 7 c91 9 100
2 100 -81 0 -75 -12 -90 -78 -99 -102 -13 -92 6 -92 -174 0 -192 -2 -197 -98
-209 -110 -15 -102 -49 -102 437 0 337 3 421 14 436 11 15 45 23 182 41 202
26 248 28 261 12z m-949 -30 c18 -18 14 -70 -8 -98 l-20 -25 0 68 c0 67 5 78
28 55z m323 -43 c54 -19 96 -58 120 -110 17 -36 19 -68 18 -310 0 -200 -3
-280 -13 -308 -45 -125 -192 -206 -325 -179 -65 14 -114 49 -144 105 -21 40
-22 55 -25 297 -4 280 1 319 49 390 39 58 93 96 161 114 70 19 106 19 159 1z
m1957 -676 c5 -25 -187 -218 -297 -300 -475 -353 -1080 -396 -1513 -106 -104
70 -179 143 -155 153 11 4 32 -8 64 -36 303 -266 770 -342 1188 -193 232 83
494 264 638 439 51 62 69 73 75 43z"/>
<path d="M2733 2733 c-22 -4 -23 -9 -23 -93 l0 -89 33 6 c44 8 55 19 67 65 12
42 6 73 -18 101 -15 17 -19 18 -59 10z"/>
<path d="M1710 2520 l0 -90 29 0 c42 0 71 40 71 97 0 65 -13 83 -60 83 l-40 0
0 -90z"/>
<path d="M2713 1803 c-9 -3 -13 -32 -13 -94 0 -89 0 -89 26 -89 15 0 38 12 55
29 52 53 33 162 -29 160 -15 0 -33 -3 -39 -6z"/>
<path d="M696 1548 c-14 -19 -16 -59 -16 -263 0 -174 3 -244 12 -253 19 -19
63 -14 84 9 17 19 19 41 22 248 3 254 -1 274 -55 279 -23 2 -35 -3 -47 -20z"/>
</g>
</svg>
